<svg aria-hidden="true" style="position: absolute; width: 0; height: 0; overflow: hidden;" version="1.1" xmlns="http://www.w3.org/2000/svg" xmlns:xlink="http://www.w3.org/1999/xlink">
<defs>
<symbol id="icon-menu" viewBox="0 0 32 32">
<path d="M4 24v-2h24v2h-24zM4 17v-2h24v2h-24zM4 10v-2h24v2h-24z"></path>
</symbol>
<symbol id="icon-close" viewBox="0 0 32 32">
<path d="M8.3 25.1l-1.4-1.4 7.7-7.7-7.7-7.7 1.4-1.4 7.7 7.7 7.7-7.7 1.4 1.4-7.7 7.7 7.7 7.7-1.4 1.4-7.7-7.7-7.7 7.7z"></path>
</symbol>
<symbol id="icon-basket" viewBox="0 0 32 32">
<path fill="#fff" style="fill: var(--color1, #fff); stroke: var(--color1, #fff)" stroke="#fff" stroke-linejoin="round" stroke-linecap="round" stroke-miterlimit="4" stroke-width="2" d="M12.687 28c0.603 0 1.091-0.488 1.091-1.091s-0.488-1.091-1.091-1.091c-0.603 0-1.091 0.488-1.091 1.091s0.488 1.091 1.091 1.091z"></path>
<path fill="#fff" style="fill: var(--color1, #fff); stroke: var(--color1, #fff)" stroke="#fff" stroke-linejoin="round" stroke-linecap="round" stroke-miterlimit="4" stroke-width="2" d="M25.288 28c0.602 0 1.091-0.488 1.091-1.091s-0.488-1.091-1.091-1.091c-0.602 0-1.091 0.488-1.091 1.091s0.488 1.091 1.091 1.091z"></path>
<path fill="none" stroke="#fff" style="stroke: var(--color1, #fff)" stroke-linejoin="round" stroke-linecap="round" stroke-miterlimit="4" stroke-width="2" d="M3.781 4h0.338c1.948 0 3.613 1.404 3.942 3.324l2.041 11.898c0.329 1.92 1.994 3.324 3.942 3.324h12.334"></path>
<path fill="none" stroke="#fff" style="stroke: var(--color1, #fff)" stroke-linejoin="round" stroke-linecap="round" stroke-miterlimit="4" stroke-width="2" d="M10.557 18.182h15.391c0.114 0 0.225-0.044 0.313-0.123s0.149-0.191 0.171-0.315l1.777-9.818c0.014-0.079 0.013-0.161-0.005-0.239s-0.051-0.151-0.097-0.214c-0.046-0.062-0.105-0.113-0.171-0.147s-0.138-0.052-0.211-0.052h-19.142"></path>
</symbol>
<symbol id="icon-Logo" viewBox="0 0 98 32">
<path fill="#57d9a6" style="fill: var(--color2, #57d9a6)" d="M7.262 15.99c-4.008 0-7.262 3.261-7.262 7.278v7.278h7.262c4.008 0 7.262-3.261 7.262-7.278s-3.254-7.278-7.262-7.278z"></path>
<path fill="#57d9a6" style="fill: var(--color2, #57d9a6)" d="M21.807 16.010c4.008 0 7.262-3.261 7.262-7.278v-7.278h-7.262c-4.008 0-7.262 3.261-7.262 7.278s3.254 7.278 7.262 7.278z"></path>
<path fill="#57d9a6" style="fill: var(--color2, #57d9a6)" d="M14.566 8.732c0-4.006-3.263-7.257-7.283-7.257h-7.283v7.257c0 4.006 3.263 7.257 7.283 7.257s7.283-3.252 7.283-7.257z"></path>
<path fill="#57d9a6" style="fill: var(--color2, #57d9a6)" d="M14.525 23.247c0 4.006 3.263 7.257 7.283 7.257h7.283v-7.257c0-4.006-3.263-7.257-7.283-7.257s-7.283 3.251-7.283 7.257z"></path>
<path fill="#fff" style="fill: var(--color1, #fff)" d="M47.552 25.024c-1.055 0-2.11-0.19-3.165-0.569-1.039-0.396-1.97-0.981-2.794-1.756l2.077-2.497c0.577 0.495 1.212 0.898 1.904 1.212 0.709 0.313 1.401 0.47 2.077 0.47 0.758 0 1.319-0.14 1.681-0.42 0.379-0.28 0.569-0.659 0.569-1.137 0-0.247-0.058-0.462-0.173-0.643-0.099-0.181-0.255-0.338-0.47-0.47-0.198-0.148-0.445-0.28-0.742-0.396-0.28-0.132-0.593-0.272-0.94-0.42l-2.102-0.89c-0.412-0.165-0.816-0.379-1.212-0.643-0.379-0.264-0.725-0.569-1.039-0.915-0.297-0.363-0.536-0.775-0.717-1.236-0.181-0.478-0.272-1.014-0.272-1.607 0-0.659 0.14-1.278 0.42-1.855 0.28-0.593 0.676-1.104 1.187-1.533 0.511-0.445 1.113-0.791 1.805-1.039 0.709-0.247 1.484-0.371 2.324-0.371 0.94 0 1.863 0.181 2.769 0.544 0.923 0.363 1.731 0.89 2.423 1.583l-1.855 2.3c-0.528-0.412-1.055-0.725-1.583-0.94-0.528-0.231-1.113-0.346-1.756-0.346-0.626 0-1.129 0.132-1.508 0.396-0.363 0.247-0.544 0.602-0.544 1.063 0 0.247 0.058 0.462 0.173 0.643 0.132 0.165 0.305 0.321 0.519 0.47 0.231 0.132 0.495 0.264 0.791 0.396 0.297 0.115 0.618 0.247 0.964 0.396l2.077 0.841c0.989 0.396 1.764 0.94 2.324 1.632 0.577 0.692 0.865 1.607 0.865 2.745 0 0.676-0.14 1.319-0.42 1.929-0.264 0.593-0.659 1.121-1.187 1.583-0.511 0.445-1.146 0.808-1.904 1.088-0.758 0.264-1.615 0.396-2.572 0.396zM55.58 24.727v-17.334h3.536v9.94h0.099l3.882-4.871h3.956l-4.303 5.044 4.624 7.22h-3.932l-2.769-4.772-1.558 1.756v3.017h-3.536zM68.632 24.727v-12.265h3.635v12.265h-3.635zM70.437 10.657c-0.61 0-1.113-0.173-1.508-0.519-0.396-0.363-0.593-0.824-0.593-1.385s0.198-1.014 0.593-1.36c0.396-0.346 0.898-0.519 1.508-0.519 0.626 0 1.129 0.173 1.508 0.519 0.396 0.346 0.593 0.799 0.593 1.36s-0.198 1.022-0.593 1.385c-0.379 0.346-0.882 0.519-1.508 0.519zM78.31 25.024c-0.626 0-1.154-0.099-1.583-0.297s-0.775-0.47-1.039-0.816c-0.247-0.363-0.428-0.791-0.544-1.286-0.116-0.511-0.173-1.080-0.173-1.706v-13.526h3.635v13.674c0 0.379 0.066 0.643 0.198 0.791 0.148 0.148 0.297 0.223 0.445 0.223 0.082 0 0.148 0 0.198 0 0.066 0 0.148-0.017 0.247-0.049l0.445 2.695c-0.198 0.082-0.453 0.148-0.767 0.198-0.297 0.066-0.651 0.099-1.063 0.099zM84.891 25.024c-0.627 0-1.154-0.099-1.583-0.297s-0.775-0.47-1.039-0.816c-0.247-0.363-0.429-0.791-0.544-1.286-0.116-0.511-0.173-1.080-0.173-1.706v-13.526h3.635v13.674c0 0.379 0.065 0.643 0.198 0.791 0.148 0.148 0.297 0.223 0.445 0.223 0.082 0 0.148 0 0.198 0 0.065 0 0.148-0.017 0.247-0.049l0.445 2.695c-0.198 0.082-0.454 0.148-0.767 0.198-0.297 0.066-0.652 0.099-1.063 0.099zM87.465 24.727v-1.953l5.143-7.468h-4.575v-2.844h9.1v1.929l-5.143 7.492h5.316v2.844h-9.841z"></path>
</symbol>
</defs>
</svg>
