<svg aria-hidden="true" style="position: absolute; width: 0; height: 0; overflow: hidden;" version="1.1" xmlns="http://www.w3.org/2000/svg" xmlns:xlink="http://www.w3.org/1999/xlink">
<defs>
<symbol id="icon-instagram" viewBox="0 0 32 32">
<path d="M16 0c-4.347 0-4.889 0.020-6.596 0.096-1.704 0.080-2.864 0.348-3.884 0.744-1.052 0.408-1.945 0.956-2.835 1.845s-1.439 1.781-1.845 2.835c-0.396 1.020-0.665 2.18-0.744 3.884-0.080 1.707-0.096 2.249-0.096 6.596s0.020 4.889 0.096 6.596c0.080 1.703 0.348 2.864 0.744 3.884 0.408 1.051 0.956 1.945 1.845 2.835 0.889 0.888 1.781 1.439 2.835 1.845 1.021 0.395 2.181 0.665 3.884 0.744 1.707 0.080 2.249 0.096 6.596 0.096s4.889-0.020 6.596-0.096c1.703-0.080 2.864-0.349 3.884-0.744 1.051-0.408 1.945-0.957 2.835-1.845 0.888-0.889 1.439-1.78 1.845-2.835 0.395-1.020 0.665-2.181 0.744-3.884 0.080-1.707 0.096-2.249 0.096-6.596s-0.020-4.889-0.096-6.596c-0.080-1.703-0.349-2.865-0.744-3.884-0.408-1.052-0.957-1.945-1.845-2.835-0.889-0.889-1.78-1.439-2.835-1.845-1.020-0.396-2.181-0.665-3.884-0.744-1.707-0.080-2.249-0.096-6.596-0.096zM16 2.88c4.271 0 4.78 0.021 6.467 0.095 1.56 0.073 2.407 0.332 2.969 0.553 0.749 0.289 1.28 0.636 1.843 1.195 0.559 0.56 0.905 1.092 1.195 1.841 0.219 0.563 0.48 1.409 0.551 2.969 0.076 1.688 0.093 2.195 0.093 6.467s-0.020 4.78-0.099 6.467c-0.081 1.56-0.341 2.407-0.561 2.969-0.299 0.749-0.639 1.28-1.199 1.843-0.559 0.559-1.099 0.905-1.84 1.195-0.56 0.219-1.42 0.48-2.98 0.551-1.699 0.076-2.199 0.093-6.479 0.093-4.281 0-4.781-0.020-6.479-0.099-1.561-0.081-2.421-0.341-2.981-0.561-0.759-0.299-1.28-0.639-1.839-1.199-0.561-0.559-0.92-1.099-1.2-1.84-0.22-0.56-0.479-1.42-0.56-2.98-0.060-1.68-0.081-2.199-0.081-6.459 0-4.261 0.021-4.781 0.081-6.481 0.081-1.56 0.34-2.419 0.56-2.979 0.28-0.76 0.639-1.28 1.2-1.841 0.559-0.559 1.080-0.919 1.839-1.197 0.56-0.221 1.401-0.481 2.961-0.561 1.7-0.060 2.2-0.080 6.479-0.080l0.060 0.040zM16 7.784c-4.54 0-8.216 3.68-8.216 8.216 0 4.54 3.68 8.216 8.216 8.216 4.54 0 8.216-3.68 8.216-8.216 0-4.54-3.68-8.216-8.216-8.216zM16 21.333c-2.947 0-5.333-2.387-5.333-5.333s2.387-5.333 5.333-5.333c2.947 0 5.333 2.387 5.333 5.333s-2.387 5.333-5.333 5.333zM26.461 7.46c0 1.060-0.861 1.92-1.92 1.92-1.060 0-1.92-0.861-1.92-1.92s0.861-1.919 1.92-1.919c1.057-0.001 1.92 0.86 1.92 1.919z"></path>
</symbol>
<symbol id="icon-youtube" viewBox="0 0 32 32">
<path d="M31.329 8.274c-0.185-0.664-0.539-1.27-1.027-1.757s-1.093-0.841-1.757-1.027c-2.493-0.668-12.528-0.668-12.528-0.668s-10.009-0.013-12.528 0.668c-0.664 0.185-1.27 0.539-1.757 1.027s-0.841 1.093-1.027 1.757c-0.473 2.553-0.706 5.144-0.696 7.74-0.008 2.586 0.225 5.168 0.696 7.711 0.185 0.664 0.539 1.27 1.027 1.757s1.093 0.841 1.757 1.027c2.491 0.669 12.528 0.669 12.528 0.669s10.008 0 12.528-0.669c0.664-0.185 1.269-0.539 1.757-1.027s0.841-1.093 1.027-1.757c0.461-2.544 0.684-5.125 0.667-7.711 0.019-2.595-0.204-5.186-0.667-7.74zM12.814 20.802v-9.591l8.352 4.803-8.352 4.788z"></path>
</symbol>
<symbol id="icon-tiktok" viewBox="0 0 29 32">
<path d="M28.687 8.024c-1.826 0-3.511-0.605-4.864-1.626-1.552-1.17-2.667-2.886-3.061-4.864-0.097-0.489-0.15-0.993-0.155-1.51h-5.217v14.255l-0.006 7.808c0 2.087-1.359 3.857-3.244 4.48-0.547 0.181-1.137 0.266-1.752 0.233-0.785-0.043-1.521-0.28-2.16-0.663-1.361-0.814-2.283-2.29-2.308-3.979-0.039-2.639 2.094-4.791 4.732-4.791 0.521 0 1.021 0.085 1.489 0.239v-5.297c-0.494-0.073-0.996-0.111-1.504-0.111-2.887 0-5.587 1.2-7.517 3.362-1.459 1.634-2.334 3.718-2.469 5.904-0.177 2.871 0.874 5.601 2.911 7.614 0.299 0.296 0.614 0.57 0.942 0.823 1.747 1.344 3.882 2.073 6.132 2.073 0.508 0 1.011-0.037 1.504-0.111 2.101-0.311 4.040-1.273 5.57-2.786 1.88-1.858 2.919-4.325 2.93-6.951l-0.027-11.66c0.897 0.692 1.877 1.264 2.93 1.709 1.637 0.691 3.372 1.041 5.159 1.040v-5.194c0.001 0.001-0.014 0.001-0.015 0.001z"></path>
</symbol>
<symbol id="icon-facebook" viewBox="0 0 16 32">
<path d="M10.285 32v-16.002h4.417l0.585-5.514h-5.003l0.008-2.76c0-1.438 0.137-2.209 2.202-2.209h2.761v-5.515h-4.418c-5.307 0-7.174 2.675-7.174 7.174v3.311h-3.308v5.514h3.308v16.001h6.621z"></path>
</symbol>
<symbol id="icon-twitter" viewBox="0 0 32 32">
<path d="M31.939 6.092c-1.18 0.519-2.44 0.872-3.767 1.033 1.352-0.815 2.392-2.099 2.884-3.631-1.268 0.74-2.673 1.279-4.169 1.579-1.195-1.279-2.897-2.079-4.788-2.079-3.623 0-6.56 2.937-6.56 6.556 0 0.52 0.060 1.020 0.169 1.499-5.453-0.257-10.287-2.876-13.521-6.835-0.569 0.963-0.888 2.081-0.888 3.3 0 2.28 1.16 4.284 2.917 5.461-1.076-0.035-2.088-0.331-2.971-0.821v0.081c0 3.18 2.257 5.832 5.261 6.436-0.551 0.148-1.132 0.228-1.728 0.228-0.419 0-0.82-0.040-1.221-0.115 0.841 2.604 3.26 4.503 6.139 4.556-2.24 1.759-5.079 2.807-8.136 2.807-0.52 0-1.039-0.031-1.56-0.089 2.919 1.859 6.357 2.945 10.076 2.945 12.072 0 18.665-9.995 18.665-18.648 0-0.279 0-0.56-0.020-0.84 1.281-0.919 2.4-2.080 3.28-3.397l-0.063-0.027z"></path>
</symbol>
<symbol id="icon-star" viewBox="0 0 35 32">
<path d="M17.655 0.001l3.964 12.199h12.827l-10.377 7.54 3.964 12.199-10.377-7.54-10.377 7.54 3.964-12.199-10.377-7.54h12.827l3.964-12.199z"></path>
</symbol>
<symbol id="icon-menu" viewBox="0 0 32 32">
<path d="M4 24v-2h24v2h-24zM4 17v-2h24v2h-24zM4 10v-2h24v2h-24z"></path>
</symbol>
<symbol id="icon-close" viewBox="0 0 32 32">
<path d="M8.3 25.1l-1.4-1.4 7.7-7.7-7.7-7.7 1.4-1.4 7.7 7.7 7.7-7.7 1.4 1.4-7.7 7.7 7.7 7.7-1.4 1.4-7.7-7.7-7.7 7.7z"></path>
</symbol>
<symbol id="icon-basket" viewBox="0 0 32 32">
<path fill="#fff" style="fill: var(--color1, #fff); stroke: var(--color1, #fff)" stroke="#fff" stroke-linejoin="round" stroke-linecap="round" stroke-miterlimit="4" stroke-width="2" d="M12.687 28c0.603 0 1.091-0.488 1.091-1.091s-0.488-1.091-1.091-1.091c-0.603 0-1.091 0.488-1.091 1.091s0.488 1.091 1.091 1.091z"></path>
<path fill="#fff" style="fill: var(--color1, #fff); stroke: var(--color1, #fff)" stroke="#fff" stroke-linejoin="round" stroke-linecap="round" stroke-miterlimit="4" stroke-width="2" d="M25.288 28c0.602 0 1.091-0.488 1.091-1.091s-0.488-1.091-1.091-1.091c-0.602 0-1.091 0.488-1.091 1.091s0.488 1.091 1.091 1.091z"></path>
<path fill="none" stroke="#fff" style="stroke: var(--color1, #fff)" stroke-linejoin="round" stroke-linecap="round" stroke-miterlimit="4" stroke-width="2" d="M3.781 4h0.338c1.948 0 3.613 1.404 3.942 3.324l2.041 11.898c0.329 1.92 1.994 3.324 3.942 3.324h12.334"></path>
<path fill="none" stroke="#fff" style="stroke: var(--color1, #fff)" stroke-linejoin="round" stroke-linecap="round" stroke-miterlimit="4" stroke-width="2" d="M10.557 18.182h15.391c0.114 0 0.225-0.044 0.313-0.123s0.149-0.191 0.171-0.315l1.777-9.818c0.014-0.079 0.013-0.161-0.005-0.239s-0.051-0.151-0.097-0.214c-0.046-0.062-0.105-0.113-0.171-0.147s-0.138-0.052-0.211-0.052h-19.142"></path>
</symbol>
<symbol id="icon-Logo" viewBox="0 0 98 32">
<path fill="#57d9a6" style="fill: var(--color2, #57d9a6)" d="M7.262 15.99c-4.008 0-7.262 3.261-7.262 7.278v7.278h7.262c4.008 0 7.262-3.261 7.262-7.278s-3.254-7.278-7.262-7.278z"></path>
<path fill="#57d9a6" style="fill: var(--color2, #57d9a6)" d="M21.807 16.010c4.008 0 7.262-3.261 7.262-7.278v-7.278h-7.262c-4.008 0-7.262 3.261-7.262 7.278s3.254 7.278 7.262 7.278z"></path>
<path fill="#57d9a6" style="fill: var(--color2, #57d9a6)" d="M14.566 8.732c0-4.006-3.263-7.257-7.283-7.257h-7.283v7.257c0 4.006 3.263 7.257 7.283 7.257s7.283-3.252 7.283-7.257z"></path>
<path fill="#57d9a6" style="fill: var(--color2, #57d9a6)" d="M14.525 23.247c0 4.006 3.263 7.257 7.283 7.257h7.283v-7.257c0-4.006-3.263-7.257-7.283-7.257s-7.283 3.251-7.283 7.257z"></path>
<path fill="#fff" style="fill: var(--color1, #fff)" d="M47.552 25.024c-1.055 0-2.11-0.19-3.165-0.569-1.039-0.396-1.97-0.981-2.794-1.756l2.077-2.497c0.577 0.495 1.212 0.898 1.904 1.212 0.709 0.313 1.401 0.47 2.077 0.47 0.758 0 1.319-0.14 1.681-0.42 0.379-0.28 0.569-0.659 0.569-1.137 0-0.247-0.058-0.462-0.173-0.643-0.099-0.181-0.255-0.338-0.47-0.47-0.198-0.148-0.445-0.28-0.742-0.396-0.28-0.132-0.593-0.272-0.94-0.42l-2.102-0.89c-0.412-0.165-0.816-0.379-1.212-0.643-0.379-0.264-0.725-0.569-1.039-0.915-0.297-0.363-0.536-0.775-0.717-1.236-0.181-0.478-0.272-1.014-0.272-1.607 0-0.659 0.14-1.278 0.42-1.855 0.28-0.593 0.676-1.104 1.187-1.533 0.511-0.445 1.113-0.791 1.805-1.039 0.709-0.247 1.484-0.371 2.324-0.371 0.94 0 1.863 0.181 2.769 0.544 0.923 0.363 1.731 0.89 2.423 1.583l-1.855 2.3c-0.528-0.412-1.055-0.725-1.583-0.94-0.528-0.231-1.113-0.346-1.756-0.346-0.626 0-1.129 0.132-1.508 0.396-0.363 0.247-0.544 0.602-0.544 1.063 0 0.247 0.058 0.462 0.173 0.643 0.132 0.165 0.305 0.321 0.519 0.47 0.231 0.132 0.495 0.264 0.791 0.396 0.297 0.115 0.618 0.247 0.964 0.396l2.077 0.841c0.989 0.396 1.764 0.94 2.324 1.632 0.577 0.692 0.865 1.607 0.865 2.745 0 0.676-0.14 1.319-0.42 1.929-0.264 0.593-0.659 1.121-1.187 1.583-0.511 0.445-1.146 0.808-1.904 1.088-0.758 0.264-1.615 0.396-2.572 0.396zM55.58 24.727v-17.334h3.536v9.94h0.099l3.882-4.871h3.956l-4.303 5.044 4.624 7.22h-3.932l-2.769-4.772-1.558 1.756v3.017h-3.536zM68.632 24.727v-12.265h3.635v12.265h-3.635zM70.437 10.657c-0.61 0-1.113-0.173-1.508-0.519-0.396-0.363-0.593-0.824-0.593-1.385s0.198-1.014 0.593-1.36c0.396-0.346 0.898-0.519 1.508-0.519 0.626 0 1.129 0.173 1.508 0.519 0.396 0.346 0.593 0.799 0.593 1.36s-0.198 1.022-0.593 1.385c-0.379 0.346-0.882 0.519-1.508 0.519zM78.31 25.024c-0.626 0-1.154-0.099-1.583-0.297s-0.775-0.47-1.039-0.816c-0.247-0.363-0.428-0.791-0.544-1.286-0.116-0.511-0.173-1.080-0.173-1.706v-13.526h3.635v13.674c0 0.379 0.066 0.643 0.198 0.791 0.148 0.148 0.297 0.223 0.445 0.223 0.082 0 0.148 0 0.198 0 0.066 0 0.148-0.017 0.247-0.049l0.445 2.695c-0.198 0.082-0.453 0.148-0.767 0.198-0.297 0.066-0.651 0.099-1.063 0.099zM84.891 25.024c-0.627 0-1.154-0.099-1.583-0.297s-0.775-0.47-1.039-0.816c-0.247-0.363-0.429-0.791-0.544-1.286-0.116-0.511-0.173-1.080-0.173-1.706v-13.526h3.635v13.674c0 0.379 0.065 0.643 0.198 0.791 0.148 0.148 0.297 0.223 0.445 0.223 0.082 0 0.148 0 0.198 0 0.065 0 0.148-0.017 0.247-0.049l0.445 2.695c-0.198 0.082-0.454 0.148-0.767 0.198-0.297 0.066-0.652 0.099-1.063 0.099zM87.465 24.727v-1.953l5.143-7.468h-4.575v-2.844h9.1v1.929l-5.143 7.492h5.316v2.844h-9.841z"></path>
</symbol>
</defs>
</svg>
